# ProBuilder 4.4.0
# https://unity3d.com/unity/features/worldbuilding/probuilder
# 21.05.2021 23:10:11

mtllib ./Arch.mtl
o Arch

g Arch
v -3 -1.5 -0.5
v -2.990752 -1.264623 -0.5
v -3 -1.5 0.5
v -2.990752 -1.264623 0.5
v -2.492293 -1.303852 -0.5
v -2.5 -1.5 -0.5
v -2.492293 -1.303852 0.5
v -2.5 -1.5 0.5
v -2.963065 -1.030697 -0.5
v -2.963065 -1.030697 0.5
v -2.469221 -1.108914 -0.5
v -2.469221 -1.108914 0.5
v -2.91711 -0.7996639 -0.5
v -2.91711 -0.7996639 0.5
v -2.430925 -0.9163866 -0.5
v -2.430925 -0.9163866 0.5
v -2.85317 -0.572949 -0.5
v -2.85317 -0.572949 0.5
v -2.377641 -0.7274575 -0.5
v -2.377641 -0.7274575 0.5
v -2.771638 -0.3519497 -0.5
v -2.771638 -0.3519497 0.5
v -2.309699 -0.5432913 -0.5
v -2.309699 -0.5432913 0.5
v -2.67302 -0.1380285 -0.5
v -2.67302 -0.1380285 0.5
v -2.227516 -0.3650237 -0.5
v -2.227516 -0.3650237 0.5
v -2.55792 0.06749558 -0.5
v -2.55792 0.06749558 0.5
v -2.1316 -0.1937536 -0.5
v -2.1316 -0.1937536 0.5
v -2.427051 0.2633557 -0.5
v -2.427051 0.2633557 0.5
v -2.022542 -0.03053689 -0.5
v -2.022542 -0.03053689 0.5
v -2.281218 0.4483441 -0.5
v -2.281218 0.4483441 0.5
v -1.901015 0.12362 -0.5
v -1.901015 0.12362 0.5
v -2.12132 0.6213202 -0.5
v -2.12132 0.6213202 0.5
v -1.767767 0.267767 -0.5
v -1.767767 0.267767 0.5
v -1.948344 0.7812178 -0.5
v -1.948344 0.7812178 0.5
v -1.62362 0.4010149 -0.5
v -1.62362 0.4010149 0.5
v -1.763356 0.9270511 -0.5
v -1.763356 0.9270511 0.5
v -1.469463 0.5225425 -0.5
v -1.469463 0.5225425 0.5
v -1.567496 1.05792 -0.5
v -1.567496 1.05792 0.5
v -1.306247 0.6316004 -0.5
v -1.306247 0.6316004 0.5
v -1.361972 1.17302 -0.5
v -1.361972 1.17302 0.5
v -1.134976 0.7275164 -0.5
v -1.134976 0.7275164 0.5
v -1.14805 1.271638 -0.5
v -1.14805 1.271638 0.5
v -0.9567084 0.8096988 -0.5
v -0.9567084 0.8096988 0.5
v -0.9270511 1.35317 -0.5
v -0.9270511 1.35317 0.5
v -0.7725425 0.8776414 -0.5
v -0.7725425 0.8776414 0.5
v -0.7003362 1.41711 -0.5
v -0.7003362 1.41711 0.5
v -0.5836136 0.9309249 -0.5
v -0.5836136 0.9309249 0.5
v -0.4693036 1.463065 -0.5
v -0.4693036 1.463065 0.5
v -0.3910861 0.9692209 -0.5
v -0.3910861 0.9692209 0.5
v -0.2353773 1.490752 -0.5
v -0.2353773 1.490752 0.5
v -0.1961477 0.9922934 -0.5
v -0.1961477 0.9922934 0.5
v 2.384186E-07 1.5 -0.5
v 2.384186E-07 1.5 0.5
v 0 1 -0.5
v 0 1 0.5
v 0.2353771 1.490752 -0.5
v 0.2353771 1.490752 0.5
v 0.1961477 0.9922934 -0.5
v 0.1961477 0.9922934 0.5
v 0.4693034 1.463065 -0.5
v 0.4693034 1.463065 0.5
v 0.3910861 0.9692209 -0.5
v 0.3910861 0.9692209 0.5
v 0.7003362 1.41711 -0.5
v 0.7003362 1.41711 0.5
v 0.5836134 0.9309249 -0.5
v 0.5836134 0.9309249 0.5
v 0.9270508 1.35317 -0.5
v 0.9270508 1.35317 0.5
v 0.7725425 0.8776414 -0.5
v 0.7725425 0.8776414 0.5
v 1.14805 1.271639 -0.5
v 1.14805 1.271639 0.5
v 0.9567084 0.8096988 -0.5
v 0.9567084 0.8096988 0.5
v 1.361971 1.17302 -0.5
v 1.361971 1.17302 0.5
v 1.134976 0.7275164 -0.5
v 1.134976 0.7275164 0.5
v 1.567495 1.057921 -0.5
v 1.567495 1.057921 0.5
v 1.306246 0.6316006 -0.5
v 1.306246 0.6316006 0.5
v 1.763355 0.9270511 -0.5
v 1.763355 0.9270511 0.5
v 1.469463 0.5225425 -0.5
v 1.469463 0.5225425 0.5
v 1.948344 0.7812178 -0.5
v 1.948344 0.7812178 0.5
v 1.62362 0.4010149 -0.5
v 1.62362 0.4010149 0.5
v 2.12132 0.6213202 -0.5
v 2.12132 0.6213202 0.5
v 1.767767 0.267767 -0.5
v 1.767767 0.267767 0.5
v 2.281218 0.4483441 -0.5
v 2.281218 0.4483441 0.5
v 1.901015 0.12362 -0.5
v 1.901015 0.12362 0.5
v 2.427051 0.2633555 -0.5
v 2.427051 0.2633555 0.5
v 2.022543 -0.03053701 -0.5
v 2.022543 -0.03053701 0.5
v 2.55792 0.06749606 -0.5
v 2.55792 0.06749606 0.5
v 2.1316 -0.1937534 -0.5
v 2.1316 -0.1937534 0.5
v 2.673019 -0.1380283 -0.5
v 2.673019 -0.1380283 0.5
v 2.227516 -0.3650236 -0.5
v 2.227516 -0.3650236 0.5
v 2.771638 -0.3519496 -0.5
v 2.771638 -0.3519496 0.5
v 2.309699 -0.5432913 -0.5
v 2.309699 -0.5432913 0.5
v 2.853169 -0.5729489 -0.5
v 2.853169 -0.5729489 0.5
v 2.377641 -0.7274574 -0.5
v 2.377641 -0.7274574 0.5
v 2.917109 -0.7996639 -0.5
v 2.917109 -0.7996639 0.5
v 2.430925 -0.9163865 -0.5
v 2.430925 -0.9163865 0.5
v 2.963065 -1.030697 -0.5
v 2.963065 -1.030697 0.5
v 2.469221 -1.108914 -0.5
v 2.469221 -1.108914 0.5
v 2.990752 -1.264623 -0.5
v 2.990752 -1.264623 0.5
v 2.492293 -1.303852 -0.5
v 2.492293 -1.303852 0.5
v 3 -1.5 -0.5
v 3 -1.5 0.5
v 2.5 -1.5 -0.5
v 2.5 -1.5 0.5

vt -0.5 -1.616623
vt -0.5 -1.381064
vt 0.5 -1.616623
vt 0.5 -1.381064
vt 0.5 -1.400694
vt 0.5 -1.596993
vt -0.5 -1.400694
vt -0.5 -1.596993
vt -3 0.5
vt -2.5 0.5
vt -3 -0.5
vt -2.5 -0.5
vt -0.5 -1.60738
vt -0.5 -1.371822
vt 0.5 -1.60738
vt 0.5 -1.371822
vt 0.5 -1.391453
vt 0.5 -1.587752
vt -0.5 -1.391453
vt -0.5 -1.587752
vt -0.5 -1.588959
vt -0.5 -1.3534
vt 0.5 -1.588959
vt 0.5 -1.3534
vt 0.5 -1.373028
vt 0.5 -1.569327
vt -0.5 -1.373028
vt -0.5 -1.569327
vt -0.5 -1.56146
vt -0.5 -1.325902
vt 0.5 -1.56146
vt 0.5 -1.325902
vt 0.5 -1.345533
vt 0.5 -1.541832
vt -0.5 -1.345533
vt -0.5 -1.541832
vt -0.5 -1.52507
vt -0.5 -1.289511
vt 0.5 -1.52507
vt 0.5 -1.289511
vt 0.5 -1.309139
vt 0.5 -1.505438
vt -0.5 -1.309139
vt -0.5 -1.505438
vt -0.5 -1.479992
vt -0.5 -1.244433
vt 0.5 -1.479992
vt 0.5 -1.244433
vt 0.5 -1.264065
vt 0.5 -1.460364
vt -0.5 -1.264065
vt -0.5 -1.460364
vt -0.5 -1.426525
vt -0.5 -1.190966
vt 0.5 -1.426525
vt 0.5 -1.190966
vt 0.5 -1.210596
vt 0.5 -1.406895
vt -0.5 -1.210596
vt -0.5 -1.406895
vt -0.5 -1.364983
vt -0.5 -1.129424
vt 0.5 -1.364983
vt 0.5 -1.129424
vt 0.5 -1.149055
vt 0.5 -1.345354
vt -0.5 -1.149055
vt -0.5 -1.345354
vt -0.5 -1.295756
vt -0.5 -1.060197
vt 0.5 -1.295756
vt 0.5 -1.060197
vt 0.5 -1.079826
vt 0.5 -1.276125
vt -0.5 -1.079826
vt -0.5 -1.276125
vt -0.5 -1.219264
vt -0.5 -0.9837048
vt 0.5 -1.219264
vt 0.5 -0.9837048
vt 0.5 -1.003334
vt 0.5 -1.199633
vt -0.5 -1.003334
vt -0.5 -1.199633
vt 1.13598 -0.5
vt 0.9004213 -0.5
vt 1.13598 0.5
vt 0.9004213 0.5
vt -0.9200519 -0.5
vt -1.116351 -0.5
vt -0.9200519 0.5
vt -1.116351 0.5
vt 1.046418 -0.5
vt 0.8108594 -0.5
vt 1.046418 0.5
vt 0.8108594 0.5
vt -0.8304908 -0.5
vt -1.02679 -0.5
vt -0.8304908 0.5
vt -1.02679 0.5
vt 0.951136 -0.5
vt 0.7155771 -0.5
vt 0.951136 0.5
vt 0.7155771 0.5
vt -0.735206 -0.5
vt -0.9315051 -0.5
vt -0.735206 0.5
vt -0.9315051 0.5
vt 0.8507108 -0.5
vt 0.6151518 -0.5
vt 0.8507108 0.5
vt 0.6151518 0.5
vt -0.6347818 -0.5
vt -0.8310811 -0.5
vt -0.6347818 0.5
vt -0.8310811 0.5
vt 0.7457712 -0.5
vt 0.5102123 -0.5
vt 0.7457712 0.5
vt 0.5102123 0.5
vt -0.5298409 -0.5
vt -0.7261401 -0.5
vt -0.5298409 0.5
vt -0.7261401 0.5
vt 0.6369528 -0.5
vt 0.4013939 -0.5
vt 0.6369528 0.5
vt 0.4013939 0.5
vt -0.4210249 -0.5
vt -0.6173239 -0.5
vt -0.4210249 0.5
vt -0.6173239 0.5
vt 0.5249411 -0.5
vt 0.2893823 -0.5
vt 0.5249411 0.5
vt 0.2893823 0.5
vt -0.3090113 -0.5
vt -0.5053101 -0.5
vt -0.3090113 0.5
vt -0.5053101 0.5
vt 0.410414 -0.5
vt 0.1748551 -0.5
vt 0.410414 0.5
vt 0.1748551 0.5
vt -0.1944865 -0.5
vt -0.3907859 -0.5
vt -0.1944865 0.5
vt -0.3907859 0.5
vt 0.2940868 -0.5
vt 0.05852774 -0.5
vt 0.2940868 0.5
vt 0.05852774 0.5
vt -0.0781565 -0.5
vt -0.2744556 -0.5
vt -0.0781565 0.5
vt -0.2744556 0.5
vt 0.1766691 -0.5
vt -0.05889002 -0.5
vt 0.1766691 0.5
vt -0.05889002 0.5
vt 0.03925971 -0.5
vt -0.1570393 -0.5
vt 0.03925971 0.5
vt -0.1570393 0.5
vt -0.1766687 -0.5
vt -0.1766687 0.5
vt 0.1570393 -0.5
vt -0.03925971 -0.5
vt 0.1570393 0.5
vt -0.03925971 0.5
vt -0.2940866 -0.5
vt -0.2940866 0.5
vt 0.2744556 -0.5
vt 0.0781565 -0.5
vt 0.2744556 0.5
vt 0.0781565 0.5
vt -0.1748552 -0.5
vt -0.4104142 -0.5
vt -0.1748552 0.5
vt -0.4104142 0.5
vt 0.3907854 -0.5
vt 0.1944863 -0.5
vt 0.3907854 0.5
vt 0.1944863 0.5
vt -0.2893819 -0.5
vt -0.5249405 -0.5
vt -0.2893819 0.5
vt -0.5249405 0.5
vt 0.5053105 -0.5
vt 0.3090114 -0.5
vt 0.5053105 0.5
vt 0.3090114 0.5
vt -0.4013957 -0.5
vt -0.6369548 -0.5
vt -0.4013957 0.5
vt -0.6369548 0.5
vt 0.6173239 -0.5
vt 0.4210249 -0.5
vt 0.6173239 0.5
vt 0.4210249 0.5
vt -0.5102102 -0.5
vt -0.7457684 -0.5
vt -0.5102102 0.5
vt -0.7457684 0.5
vt 0.726139 -0.5
vt 0.5298401 -0.5
vt 0.726139 0.5
vt 0.5298401 0.5
vt -0.6151519 -0.5
vt -0.8507111 -0.5
vt -0.6151519 0.5
vt -0.8507111 0.5
vt 0.8310823 -0.5
vt 0.6347831 -0.5
vt 0.8310823 0.5
vt 0.6347831 0.5
vt -0.7155742 -0.5
vt -0.951133 -0.5
vt -0.7155742 0.5
vt -0.951133 0.5
vt 0.9315031 -0.5
vt 0.7352039 -0.5
vt 0.9315031 0.5
vt 0.7352039 0.5
vt -0.8108628 -0.5
vt -1.046422 -0.5
vt -0.8108628 0.5
vt -1.046422 0.5
vt 1.026791 -0.5
vt 0.8304921 -0.5
vt 1.026791 0.5
vt 0.8304921 0.5
vt -0.9004207 -0.5
vt -1.13598 -0.5
vt -0.9004207 0.5
vt -1.13598 0.5
vt 1.116351 -0.5
vt 0.9200519 -0.5
vt 1.116351 0.5
vt 0.9200519 0.5
vt 2.5 0.5
vt 3 0.5
vt 2.5 -0.5
vt 3 -0.5
vt -3 -1.5
vt -2.990752 -1.264623
vt -2.5 -1.5
vt -2.492293 -1.303852
vt 2.990752 -1.264623
vt 3 -1.5
vt 2.492293 -1.303852
vt 2.5 -1.5
vt -2.963065 -1.030697
vt -2.469221 -1.108914
vt 2.963065 -1.030697
vt 2.469221 -1.108914
vt -2.91711 -0.7996639
vt -2.430925 -0.9163866
vt 2.91711 -0.7996639
vt 2.430925 -0.9163866
vt -2.85317 -0.572949
vt -2.377641 -0.7274575
vt 2.85317 -0.572949
vt 2.377641 -0.7274575
vt -2.771638 -0.3519497
vt -2.309699 -0.5432913
vt 2.771638 -0.3519497
vt 2.309699 -0.5432913
vt -2.67302 -0.1380285
vt -2.227516 -0.3650237
vt 2.67302 -0.1380285
vt 2.227516 -0.3650237
vt -2.55792 0.06749558
vt -2.1316 -0.1937536
vt 2.55792 0.06749558
vt 2.1316 -0.1937536
vt -2.427051 0.2633557
vt -2.022542 -0.03053689
vt 2.427051 0.2633557
vt 2.022542 -0.03053689
vt -2.281218 0.4483441
vt -1.901015 0.12362
vt 2.281218 0.4483441
vt 1.901015 0.12362
vt -2.12132 0.6213202
vt -1.767767 0.267767
vt 2.12132 0.6213202
vt 1.767767 0.267767
vt -1.948344 0.7812178
vt -1.62362 0.4010149
vt 1.948344 0.7812178
vt 1.62362 0.4010149
vt -1.763356 0.9270511
vt -1.469463 0.5225425
vt 1.763356 0.9270511
vt 1.469463 0.5225425
vt -1.567496 1.05792
vt -1.306247 0.6316004
vt 1.567496 1.05792
vt 1.306247 0.6316004
vt -1.361972 1.17302
vt -1.134976 0.7275164
vt 1.361972 1.17302
vt 1.134976 0.7275164
vt -1.14805 1.271638
vt -0.9567084 0.8096988
vt 1.14805 1.271638
vt 0.9567084 0.8096988
vt -0.9270511 1.35317
vt -0.7725425 0.8776414
vt 0.9270511 1.35317
vt 0.7725425 0.8776414
vt -0.7003362 1.41711
vt -0.5836136 0.9309249
vt 0.7003362 1.41711
vt 0.5836136 0.9309249
vt -0.4693036 1.463065
vt -0.3910861 0.9692209
vt 0.4693036 1.463065
vt 0.3910861 0.9692209
vt -0.2353773 1.490752
vt -0.1961477 0.9922934
vt 0.2353773 1.490752
vt 0.1961477 0.9922934
vt 2.384186E-07 1.5
vt 0 1

vn -0.999229 0.03925989 0
vn 0.9992291 -0.03925971 0
vn 0 -1 0
vn -0.9930686 0.1175368 0
vn 0.9930685 -0.1175373 0
vn -0.9807851 0.1950909 0
vn 0.9807853 -0.1950901 0
vn -0.9624554 0.2714398 0
vn 0.9624553 -0.2714402 0
vn -0.9381909 0.3461183 0
vn 0.9381911 -0.3461176 0
vn -0.9081436 0.4186588 0
vn 0.9081433 -0.4186594 0
vn -0.8724957 0.4886218 0
vn 0.8724957 -0.4886218 0
vn -0.83147 0.5555697 0
vn 0.8314697 -0.5555702 0
vn -0.7853166 0.6190944 0
vn 0.7853168 -0.6190941 0
vn -0.7343224 0.6788009 0
vn 0.7343227 -0.6788006 0
vn -0.6788009 0.7343224 0
vn 0.6788006 -0.7343227 0
vn -0.6190949 0.7853162 0
vn 0.6190944 -0.7853166 0
vn -0.5555697 0.83147 0
vn 0.5555702 -0.8314697 0
vn -0.4886216 0.8724958 0
vn 0.4886216 -0.8724958 0
vn -0.4186586 0.9081436 0
vn 0.4186589 -0.9081436 0
vn -0.3461184 0.9381908 0
vn 0.346118 -0.938191 0
vn -0.2714399 0.9624554 0
vn 0.2714405 -0.9624552 0
vn -0.195091 0.9807851 0
vn 0.1950897 -0.9807854 0
vn -0.1175367 0.9930686 0
vn 0.1175374 -0.9930685 0
vn -0.03925985 0.999229 0
vn 0.03925971 -0.9992291 0
vn 0.03925997 0.999229 0
vn -0.03925971 -0.9992291 0
vn 0.1175367 0.9930686 0
vn -0.1175374 -0.9930685 0
vn 0.1950908 0.9807852 0
vn -0.19509 -0.9807854 0
vn 0.2714401 0.9624553 0
vn -0.2714402 -0.9624553 0
vn 0.3461172 0.9381913 0
vn -0.346118 -0.938191 0
vn 0.4186597 0.9081432 0
vn -0.4186596 -0.9081433 0
vn 0.4886211 0.8724961 0
vn -0.4886204 -0.8724965 0
vn 0.5555708 0.8314692 0
vn -0.5555713 -0.8314689 0
vn 0.6190932 0.7853175 0
vn -0.6190935 -0.7853174 0
vn 0.6788012 0.7343221 0
vn -0.6788006 -0.7343227 0
vn 0.7343219 0.6788015 0
vn -0.7343218 -0.6788015 0
vn 0.7853174 0.6190933 0
vn -0.7853168 -0.6190941 0
vn 0.8314691 0.5555711 0
vn -0.8314702 -0.5555694 0
vn 0.8724964 0.4886206 0
vn -0.8724964 -0.4886206 0
vn 0.9081433 0.4186594 0
vn -0.9081424 -0.4186613 0
vn 0.9381912 0.3461173 0
vn -0.9381919 -0.3461156 0
vn 0.9624555 0.2714397 0
vn -0.962455 -0.2714413 0
vn 0.980785 0.1950919 0
vn -0.9807852 -0.1950911 0
vn 0.9930685 0.1175377 0
vn -0.9930686 -0.1175361 0
vn 0.9992291 0.03925888 0
vn -0.9992291 -0.03925968 0
vn 0 0 1
vn 0 0 -1

usemtl Collider
f 3/3/1 4/4/1 2/2/1 1/1/1
f 7/7/2 8/8/2 6/6/2 5/5/2
f 1/11/3 6/12/3 8/10/3 3/9/3
f 4/15/4 10/16/4 9/14/4 2/13/4
f 12/19/5 7/20/5 5/18/5 11/17/5
f 10/23/6 14/24/6 13/22/6 9/21/6
f 16/27/7 12/28/7 11/26/7 15/25/7
f 14/31/8 18/32/8 17/30/8 13/29/8
f 20/35/9 16/36/9 15/34/9 19/33/9
f 18/39/10 22/40/10 21/38/10 17/37/10
f 24/43/11 20/44/11 19/42/11 23/41/11
f 22/47/12 26/48/12 25/46/12 21/45/12
f 28/51/13 24/52/13 23/50/13 27/49/13
f 26/55/14 30/56/14 29/54/14 25/53/14
f 32/59/15 28/60/15 27/58/15 31/57/15
f 30/63/16 34/64/16 33/62/16 29/61/16
f 36/67/17 32/68/17 31/66/17 35/65/17
f 34/71/18 38/72/18 37/70/18 33/69/18
f 40/75/19 36/76/19 35/74/19 39/73/19
f 38/79/20 42/80/20 41/78/20 37/77/20
f 44/83/21 40/84/21 39/82/21 43/81/21
f 42/87/22 46/88/22 45/86/22 41/85/22
f 48/91/23 44/92/23 43/90/23 47/89/23
f 46/95/24 50/96/24 49/94/24 45/93/24
f 52/99/25 48/100/25 47/98/25 51/97/25
f 50/103/26 54/104/26 53/102/26 49/101/26
f 56/107/27 52/108/27 51/106/27 55/105/27
f 54/111/28 58/112/28 57/110/28 53/109/28
f 60/115/29 56/116/29 55/114/29 59/113/29
f 58/119/30 62/120/30 61/118/30 57/117/30
f 64/123/31 60/124/31 59/122/31 63/121/31
f 62/127/32 66/128/32 65/126/32 61/125/32
f 68/131/33 64/132/33 63/130/33 67/129/33
f 66/135/34 70/136/34 69/134/34 65/133/34
f 72/139/35 68/140/35 67/138/35 71/137/35
f 70/143/36 74/144/36 73/142/36 69/141/36
f 76/147/37 72/148/37 71/146/37 75/145/37
f 74/151/38 78/152/38 77/150/38 73/149/38
f 80/155/39 76/156/39 75/154/39 79/153/39
f 78/159/40 82/160/40 81/158/40 77/157/40
f 84/163/41 80/164/41 79/162/41 83/161/41
f 82/152/42 86/166/42 85/165/42 81/150/42
f 88/169/43 84/170/43 83/168/43 87/167/43
f 86/160/44 90/172/44 89/171/44 85/158/44
f 92/175/45 88/176/45 87/174/45 91/173/45
f 90/179/46 94/180/46 93/178/46 89/177/46
f 96/183/47 92/184/47 91/182/47 95/181/47
f 94/187/48 98/188/48 97/186/48 93/185/48
f 100/191/49 96/192/49 95/190/49 99/189/49
f 98/195/50 102/196/50 101/194/50 97/193/50
f 104/199/51 100/200/51 99/198/51 103/197/51
f 102/203/52 106/204/52 105/202/52 101/201/52
f 108/207/53 104/208/53 103/206/53 107/205/53
f 106/211/54 110/212/54 109/210/54 105/209/54
f 112/215/55 108/216/55 107/214/55 111/213/55
f 110/219/56 114/220/56 113/218/56 109/217/56
f 116/223/57 112/224/57 111/222/57 115/221/57
f 114/227/58 118/228/58 117/226/58 113/225/58
f 120/231/59 116/232/59 115/230/59 119/229/59
f 118/235/60 122/236/60 121/234/60 117/233/60
f 124/239/61 120/240/61 119/238/61 123/237/61
f 122/78/62 126/77/62 125/79/62 121/80/62
f 128/82/63 124/81/63 123/83/63 127/84/63
f 126/70/64 130/69/64 129/71/64 125/72/64
f 132/74/65 128/73/65 127/75/65 131/76/65
f 130/62/66 134/61/66 133/63/66 129/64/66
f 136/66/67 132/65/67 131/67/67 135/68/67
f 134/54/68 138/53/68 137/55/68 133/56/68
f 140/58/69 136/57/69 135/59/69 139/60/69
f 138/46/70 142/45/70 141/47/70 137/48/70
f 144/50/71 140/49/71 139/51/71 143/52/71
f 142/38/72 146/37/72 145/39/72 141/40/72
f 148/42/73 144/41/73 143/43/73 147/44/73
f 146/30/74 150/29/74 149/31/74 145/32/74
f 152/34/75 148/33/75 147/35/75 151/36/75
f 150/22/76 154/21/76 153/23/76 149/24/76
f 156/26/77 152/25/77 151/27/77 155/28/77
f 154/14/78 158/13/78 157/15/78 153/16/78
f 160/18/79 156/17/79 155/19/79 159/20/79
f 158/2/80 162/1/80 161/3/80 157/4/80
f 164/6/81 160/5/81 159/7/81 163/8/81
f 163/243/3 161/244/3 162/242/3 164/241/3
f 8/247/82 7/248/82 4/246/82 3/245/82
f 5/251/83 6/252/83 1/250/83 2/249/83
f 7/248/82 12/254/82 10/253/82 4/246/82
f 11/256/83 5/251/83 2/249/83 9/255/83
f 12/254/82 16/258/82 14/257/82 10/253/82
f 15/260/83 11/256/83 9/255/83 13/259/83
f 16/258/82 20/262/82 18/261/82 14/257/82
f 19/264/83 15/260/83 13/259/83 17/263/83
f 20/262/82 24/266/82 22/265/82 18/261/82
f 23/268/83 19/264/83 17/263/83 21/267/83
f 24/266/82 28/270/82 26/269/82 22/265/82
f 27/272/83 23/268/83 21/267/83 25/271/83
f 28/270/82 32/274/82 30/273/82 26/269/82
f 31/276/83 27/272/83 25/271/83 29/275/83
f 32/274/82 36/278/82 34/277/82 30/273/82
f 35/280/83 31/276/83 29/275/83 33/279/83
f 36/278/82 40/282/82 38/281/82 34/277/82
f 39/284/83 35/280/83 33/279/83 37/283/83
f 40/282/82 44/286/82 42/285/82 38/281/82
f 43/288/83 39/284/83 37/283/83 41/287/83
f 44/286/82 48/290/82 46/289/82 42/285/82
f 47/292/83 43/288/83 41/287/83 45/291/83
f 48/290/82 52/294/82 50/293/82 46/289/82
f 51/296/83 47/292/83 45/291/83 49/295/83
f 52/294/82 56/298/82 54/297/82 50/293/82
f 55/300/83 51/296/83 49/295/83 53/299/83
f 56/298/82 60/302/82 58/301/82 54/297/82
f 59/304/83 55/300/83 53/299/83 57/303/83
f 60/302/82 64/306/82 62/305/82 58/301/82
f 63/308/83 59/304/83 57/303/83 61/307/83
f 64/306/82 68/310/82 66/309/82 62/305/82
f 67/312/83 63/308/83 61/307/83 65/311/83
f 68/310/82 72/314/82 70/313/82 66/309/82
f 71/316/83 67/312/83 65/311/83 69/315/83
f 72/314/82 76/318/82 74/317/82 70/313/82
f 75/320/83 71/316/83 69/315/83 73/319/83
f 76/318/82 80/322/82 78/321/82 74/317/82
f 79/324/83 75/320/83 73/319/83 77/323/83
f 80/322/82 84/326/82 82/325/82 78/321/82
f 83/326/83 79/324/83 77/323/83 81/325/83
f 84/326/82 88/324/82 86/323/82 82/325/82
f 87/322/83 83/326/83 81/325/83 85/321/83
f 88/324/82 92/320/82 90/319/82 86/323/82
f 91/318/83 87/322/83 85/321/83 89/317/83
f 92/320/82 96/316/82 94/315/82 90/319/82
f 95/314/83 91/318/83 89/317/83 93/313/83
f 96/316/82 100/312/82 98/311/82 94/315/82
f 99/310/83 95/314/83 93/313/83 97/309/83
f 100/312/82 104/308/82 102/307/82 98/311/82
f 103/306/83 99/310/83 97/309/83 101/305/83
f 104/308/82 108/304/82 106/303/82 102/307/82
f 107/302/83 103/306/83 101/305/83 105/301/83
f 108/304/82 112/300/82 110/299/82 106/303/82
f 111/298/83 107/302/83 105/301/83 109/297/83
f 112/300/82 116/296/82 114/295/82 110/299/82
f 115/294/83 111/298/83 109/297/83 113/293/83
f 116/296/82 120/292/82 118/291/82 114/295/82
f 119/290/83 115/294/83 113/293/83 117/289/83
f 120/292/82 124/288/82 122/287/82 118/291/82
f 123/286/83 119/290/83 117/289/83 121/285/83
f 124/288/82 128/284/82 126/283/82 122/287/82
f 127/282/83 123/286/83 121/285/83 125/281/83
f 128/284/82 132/280/82 130/279/82 126/283/82
f 131/278/83 127/282/83 125/281/83 129/277/83
f 132/280/82 136/276/82 134/275/82 130/279/82
f 135/274/83 131/278/83 129/277/83 133/273/83
f 136/276/82 140/272/82 138/271/82 134/275/82
f 139/270/83 135/274/83 133/273/83 137/269/83
f 140/272/82 144/268/82 142/267/82 138/271/82
f 143/266/83 139/270/83 137/269/83 141/265/83
f 144/268/82 148/264/82 146/263/82 142/267/82
f 147/262/83 143/266/83 141/265/83 145/261/83
f 148/264/82 152/260/82 150/259/82 146/263/82
f 151/258/83 147/262/83 145/261/83 149/257/83
f 152/260/82 156/256/82 154/255/82 150/259/82
f 155/254/83 151/258/83 149/257/83 153/253/83
f 156/256/82 160/251/82 158/249/82 154/255/82
f 159/248/83 155/254/83 153/253/83 157/246/83
f 160/251/82 164/252/82 162/250/82 158/249/82
f 163/247/83 159/248/83 157/246/83 161/245/83

