# ProBuilder 4.4.0
# https://unity3d.com/unity/features/worldbuilding/probuilder
# 21.05.2021 23:02:29

mtllib ./Cone.mtl
o Cone

g Cone
v -0.9045086 -1 0
v -0.2135255 -1 0.9510565
v 0.09549141 1 0
v 0.09549141 -1 0
v 0.9045085 -1 0.5877852
v 0.9045085 -1 -0.5877851
v -0.2135257 -1 -0.9510565

vt 0 0
vt 1.17557 1.255731E-09
vt 0.5877852 2.157431
vt -0.9045086 0
vt -0.2135255 0.9510565
vt 0.09549141 0
vt 0.9045085 0.5877852
vt 0.9045085 -0.5877851
vt -0.2135257 -0.9510565

vn -0.7499818 0.3749909 0.5448937
vn 0 -1 0
vn 0.2864676 0.3749909 0.8816565
vn 0.9270285 0.3749909 0
vn 0.2864676 0.3749909 -0.8816565
vn -0.7499819 0.3749909 -0.5448936

usemtl ProBuilderDefault
f 1/1/1 2/2/1 3/3/1
f 4/6/2 2/5/2 1/4/2
f 2/1/3 5/2/3 3/3/3
f 4/6/2 5/7/2 2/5/2
f 5/1/4 6/2/4 3/3/4
f 4/6/2 6/8/2 5/7/2
f 6/1/5 7/2/5 3/3/5
f 4/6/2 7/9/2 6/8/2
f 7/1/6 1/2/6 3/3/6
f 4/6/2 1/4/2 7/9/2

